<mxfile host="app.diagrams.net" modified="2022-05-27T07:21:57.509Z" agent="5.0 (Windows NT 10.0; Win64; x64) AppleWebKit/537.36 (KHTML, like Gecko) Chrome/100.0.4896.127 Safari/537.36" etag="8Kox5oAf_asoO27dHLkm" version="18.1.3" type="github">
  <diagram id="R2lEEEUBdFMjLlhIrx00" name="Page-1">
    <mxGraphModel dx="295" dy="268" grid="1" gridSize="10" guides="1" tooltips="1" connect="1" arrows="1" fold="1" page="1" pageScale="1" pageWidth="850" pageHeight="1100" math="0" shadow="0" extFonts="Permanent Marker^https://fonts.googleapis.com/css?family=Permanent+Marker">
      <root>
        <mxCell id="0" />
        <mxCell id="1" parent="0" />
        <mxCell id="vSA9OJWNMoGuVh6hWun6-11" style="rounded=0;orthogonalLoop=1;jettySize=auto;html=1;exitX=0.25;exitY=1;exitDx=0;exitDy=0;entryX=0;entryY=0;entryDx=0;entryDy=0;strokeColor=default;endArrow=none;endFill=0;" edge="1" parent="1" source="vSA9OJWNMoGuVh6hWun6-2" target="vSA9OJWNMoGuVh6hWun6-5">
          <mxGeometry relative="1" as="geometry" />
        </mxCell>
        <mxCell id="vSA9OJWNMoGuVh6hWun6-12" style="shape=connector;orthogonalLoop=1;jettySize=auto;html=1;exitX=0.75;exitY=1;exitDx=0;exitDy=0;entryX=0;entryY=0;entryDx=0;entryDy=0;labelBackgroundColor=default;fontFamily=Helvetica;fontSize=11;fontColor=default;endArrow=none;endFill=0;strokeColor=default;" edge="1" parent="1" source="vSA9OJWNMoGuVh6hWun6-2" target="vSA9OJWNMoGuVh6hWun6-4">
          <mxGeometry relative="1" as="geometry" />
        </mxCell>
        <mxCell id="vSA9OJWNMoGuVh6hWun6-13" style="edgeStyle=none;shape=connector;rounded=1;orthogonalLoop=1;jettySize=auto;html=1;exitX=0.75;exitY=0;exitDx=0;exitDy=0;labelBackgroundColor=default;fontFamily=Helvetica;fontSize=11;fontColor=default;endArrow=none;endFill=0;strokeColor=default;" edge="1" parent="1" source="vSA9OJWNMoGuVh6hWun6-2" target="vSA9OJWNMoGuVh6hWun6-7">
          <mxGeometry relative="1" as="geometry" />
        </mxCell>
        <mxCell id="vSA9OJWNMoGuVh6hWun6-14" style="edgeStyle=none;shape=connector;rounded=1;orthogonalLoop=1;jettySize=auto;html=1;exitX=0.5;exitY=0;exitDx=0;exitDy=0;entryX=1;entryY=1;entryDx=0;entryDy=0;labelBackgroundColor=default;fontFamily=Helvetica;fontSize=11;fontColor=default;endArrow=none;endFill=0;strokeColor=default;" edge="1" parent="1" source="vSA9OJWNMoGuVh6hWun6-2" target="vSA9OJWNMoGuVh6hWun6-8">
          <mxGeometry relative="1" as="geometry" />
        </mxCell>
        <mxCell id="vSA9OJWNMoGuVh6hWun6-15" style="edgeStyle=none;shape=connector;rounded=1;orthogonalLoop=1;jettySize=auto;html=1;exitX=0;exitY=0;exitDx=0;exitDy=0;entryX=1;entryY=1;entryDx=0;entryDy=0;labelBackgroundColor=default;fontFamily=Helvetica;fontSize=11;fontColor=default;endArrow=none;endFill=0;strokeColor=default;" edge="1" parent="1" source="vSA9OJWNMoGuVh6hWun6-2" target="vSA9OJWNMoGuVh6hWun6-3">
          <mxGeometry relative="1" as="geometry" />
        </mxCell>
        <mxCell id="vSA9OJWNMoGuVh6hWun6-2" value="基金" style="rounded=0;whiteSpace=wrap;html=1;" vertex="1" parent="1">
          <mxGeometry x="280" y="260" width="100" height="50" as="geometry" />
        </mxCell>
        <mxCell id="vSA9OJWNMoGuVh6hWun6-3" value="基金编号" style="ellipse;whiteSpace=wrap;html=1;" vertex="1" parent="1">
          <mxGeometry x="160" y="180" width="80" height="60" as="geometry" />
        </mxCell>
        <mxCell id="vSA9OJWNMoGuVh6hWun6-4" value="基金金额" style="ellipse;whiteSpace=wrap;html=1;" vertex="1" parent="1">
          <mxGeometry x="390" y="340" width="70" height="60" as="geometry" />
        </mxCell>
        <mxCell id="vSA9OJWNMoGuVh6hWun6-5" value="基金管理者" style="ellipse;whiteSpace=wrap;html=1;" vertex="1" parent="1">
          <mxGeometry x="250" y="335" width="80" height="70" as="geometry" />
        </mxCell>
        <mxCell id="vSA9OJWNMoGuVh6hWun6-6" value="风险等级" style="ellipse;whiteSpace=wrap;html=1;" vertex="1" parent="1">
          <mxGeometry x="160" y="330" width="80" height="70" as="geometry" />
        </mxCell>
        <mxCell id="vSA9OJWNMoGuVh6hWun6-7" value="基金类型" style="ellipse;whiteSpace=wrap;html=1;" vertex="1" parent="1">
          <mxGeometry x="340" y="170" width="80" height="60" as="geometry" />
        </mxCell>
        <mxCell id="vSA9OJWNMoGuVh6hWun6-8" value="基金名称" style="ellipse;whiteSpace=wrap;html=1;" vertex="1" parent="1">
          <mxGeometry x="250" y="170" width="80" height="60" as="geometry" />
        </mxCell>
        <mxCell id="vSA9OJWNMoGuVh6hWun6-9" value="" style="endArrow=none;html=1;rounded=0;entryX=-0.007;entryY=0.824;entryDx=0;entryDy=0;entryPerimeter=0;exitX=0.5;exitY=0;exitDx=0;exitDy=0;" edge="1" parent="1" source="vSA9OJWNMoGuVh6hWun6-6" target="vSA9OJWNMoGuVh6hWun6-2">
          <mxGeometry width="50" height="50" relative="1" as="geometry">
            <mxPoint x="210" y="320" as="sourcePoint" />
            <mxPoint x="260" y="270" as="targetPoint" />
          </mxGeometry>
        </mxCell>
      </root>
    </mxGraphModel>
  </diagram>
</mxfile>
